<svg version="1.1" id="Layer_1" xmlns="http://www.w3.org/2000/svg" xmlns:xlink="http://www.w3.org/1999/xlink" x="0px" y="0px"
	 width="100%" viewBox="0 0 274 275" xml:space="preserve">
<path fill="#FEFFFF" opacity="1.000000" stroke="none" 
	d="
M150.000000,276.000000 
	C100.000000,276.000000 50.500000,276.000000 1.000000,276.000000 
	C1.000000,184.333328 1.000000,92.666664 1.000000,1.000000 
	C92.333336,1.000000 183.666672,1.000000 275.000000,1.000000 
	C275.000000,92.666664 275.000000,184.333328 275.000000,276.000000 
	C233.500000,276.000000 192.000000,276.000000 150.000000,276.000000 
M156.629578,11.279861 
	C155.923279,10.893414 155.219589,10.175767 154.510284,10.170168 
	C143.762817,10.085331 133.013992,10.040527 122.267570,10.165639 
	C121.229164,10.177728 120.204597,11.378759 119.028336,12.936527 
	C119.009705,15.428238 119.117233,17.928867 118.941872,20.409498 
	C118.699608,23.836624 120.082344,25.338974 123.562378,25.085533 
	C125.826134,24.920673 128.111633,25.054478 130.648331,25.054478 
	C130.885483,28.986284 131.089020,32.360909 131.289154,35.679066 
	C136.066238,35.679066 140.312943,35.679066 144.797638,35.679066 
	C145.023819,32.032726 145.232788,28.663977 145.435593,25.394457 
	C157.603439,24.285439 157.603439,24.285439 156.629578,11.279861 
M136.534241,255.035217 
	C155.871704,255.395645 174.037018,250.668655 191.587387,241.863693 
	C194.746429,248.704041 197.694626,255.205704 200.746887,261.658142 
	C203.020981,266.465576 205.715668,267.850220 209.178452,266.011078 
	C213.302948,263.820465 213.405106,260.761749 211.452805,256.786896 
	C208.087250,249.934738 205.130219,242.881912 202.357697,236.706100 
	C210.127304,229.104401 218.152954,222.493759 224.677872,214.636795 
	C244.684921,190.545425 252.931747,162.561554 247.473663,131.691559 
	C238.751129,82.358513 198.071533,45.799099 148.291656,42.197643 
	C109.480843,39.389778 76.582993,52.242329 51.154438,82.295380 
	C22.220011,116.491898 19.208260,166.624954 43.515430,204.253967 
	C51.568470,216.720551 61.768566,227.065033 74.203987,235.673645 
	C70.945343,242.882248 67.857971,249.867828 64.631165,256.788391 
	C62.853424,260.601135 62.680893,263.898651 66.955208,266.061005 
	C70.438957,267.823456 73.220749,266.273468 75.355568,261.615936 
	C78.329063,255.128677 81.340431,248.658783 84.475273,241.879364 
	C100.774521,250.068649 117.626427,254.714935 136.534241,255.035217 
M54.954269,69.450600 
	C65.515793,61.512833 76.077316,53.575066 86.659088,45.622078 
	C78.765579,34.850929 57.832729,29.489822 41.065872,34.807621 
	C22.971087,40.546589 10.584740,56.513451 10.124468,74.693245 
	C9.770082,88.690765 18.572840,105.427849 27.918997,108.829384 
	C31.715717,101.999466 35.030956,94.884453 39.402451,88.491730 
	C43.880363,81.943375 49.392494,76.102249 54.954269,69.450600 
M265.501862,81.813622 
	C268.315674,60.305012 255.506699,40.988743 234.220825,34.527435 
	C218.196686,29.663317 196.567093,34.875526 189.091980,47.048592 
	C216.363342,60.554024 236.390823,81.039940 248.108810,109.852341 
	C257.618988,102.592690 263.395233,93.865501 265.501862,81.813622 
z"/>
<path fill="#83C3F4" opacity="1.000000" stroke="none" 
	d="
M136.046021,255.033249 
	C117.626427,254.714935 100.774521,250.068649 84.475273,241.879364 
	C81.340431,248.658783 78.329063,255.128677 75.355568,261.615936 
	C73.220749,266.273468 70.438957,267.823456 66.955208,266.061005 
	C62.680893,263.898651 62.853424,260.601135 64.631165,256.788391 
	C67.857971,249.867828 70.945343,242.882248 74.203987,235.673645 
	C61.768566,227.065033 51.568470,216.720551 43.515430,204.253967 
	C19.208260,166.624954 22.220011,116.491898 51.154438,82.295380 
	C76.582993,52.242329 109.480843,39.389778 148.291656,42.197643 
	C198.071533,45.799099 238.751129,82.358513 247.473663,131.691559 
	C252.931747,162.561554 244.684921,190.545425 224.677872,214.636795 
	C218.152954,222.493759 210.127304,229.104401 202.357697,236.706100 
	C205.130219,242.881912 208.087250,249.934738 211.452805,256.786896 
	C213.405106,260.761749 213.302948,263.820465 209.178452,266.011078 
	C205.715668,267.850220 203.020981,266.465576 200.746887,261.658142 
	C197.694626,255.205704 194.746429,248.704041 191.587387,241.863693 
	C174.037018,250.668655 155.871704,255.395645 136.046021,255.033249 
M162.306152,184.690964 
	C162.188416,185.125519 162.070663,185.560059 162.005020,185.998932 
	C162.005020,185.998932 161.984894,185.950684 161.527557,186.379929 
	C160.834244,186.754990 160.140945,187.130051 158.450592,188.044479 
	C160.467957,188.044479 161.271988,188.044479 162.737640,188.095612 
	C163.767288,187.738556 164.796951,187.381500 165.716370,187.780960 
	C165.807938,188.121231 165.899506,188.461502 165.991058,188.801773 
	C166.425430,188.559113 166.859802,188.316452 167.679260,188.055908 
	C167.679260,188.055908 168.052887,187.960953 168.500275,188.028976 
	C168.500275,188.028976 168.952759,188.035309 169.002014,188.011169 
	C169.002014,188.011169 168.949783,188.019821 169.001343,188.774200 
	C169.460159,188.884262 169.918991,188.994324 171.181946,189.115936 
	C172.430664,188.964447 173.679398,188.812958 175.183380,188.630508 
	C173.984650,187.295029 177.375656,184.228683 172.904404,184.184235 
	C171.235809,182.339890 169.849411,182.161163 168.539612,184.994431 
	C168.539612,184.994431 168.117783,185.093094 167.709473,184.970184 
	C167.709473,184.970184 167.286591,184.928024 167.183517,184.450027 
	C167.183517,184.450027 167.031647,183.985214 167.166916,183.352951 
	C167.037796,182.769714 166.908676,182.186493 166.631653,180.935104 
	C165.934082,182.505508 165.570236,183.324631 164.825195,184.037903 
	C164.825195,184.037903 164.437332,183.960098 164.484192,184.014435 
	C164.484192,184.014435 164.541672,183.971481 163.745331,183.814636 
	C163.484070,184.202133 163.222809,184.589645 163.006790,184.989624 
	C163.006790,184.989624 162.974670,184.954803 162.306152,184.690964 
M108.691940,186.852951 
	C107.276039,187.514191 105.860138,188.175430 104.444229,188.836685 
	C104.697380,189.352005 104.950523,189.867325 105.203674,190.382660 
	C107.507950,189.420853 109.812225,188.459061 112.776649,187.109833 
	C112.399567,185.768448 112.022484,184.427063 111.712418,183.324097 
	C110.615715,184.991516 109.964005,185.982361 108.691940,186.852951 
M167.484985,140.468582 
	C163.353760,140.312576 159.223740,140.086594 155.091049,140.014832 
	C145.918243,139.855499 147.052399,141.101654 147.012772,132.155884 
	C146.958969,120.011330 147.057098,107.865753 146.927979,95.722328 
	C146.911423,94.163979 145.923828,92.615952 145.092468,90.390594 
	C143.316147,86.769325 140.640503,84.349823 136.412079,85.467285 
	C132.061584,86.617027 130.836761,89.921646 130.874237,94.292442 
	C131.049500,114.737579 131.005371,135.184586 131.476196,156.389008 
	C143.648804,156.510391 155.821350,156.640121 167.994247,156.714050 
	C168.371597,156.716354 168.752457,156.140335 169.680847,155.452087 
	C173.142044,154.004440 175.483627,151.770798 175.021896,147.655869 
	C174.558548,143.526398 171.530762,142.069855 167.484985,140.468582 
M131.090439,187.203644 
	C131.297287,186.120163 131.504135,185.036682 131.732239,183.841934 
	C132.914825,184.471893 133.798355,184.942551 134.681870,185.413208 
	C135.076645,184.437363 135.471405,183.461517 135.496750,183.398865 
	C134.048309,183.515930 132.511963,183.640091 130.979477,183.763947 
	C130.979477,185.024811 130.977219,186.351151 130.982361,187.677429 
	C130.982986,187.841843 131.022919,188.006073 131.044647,188.170395 
	C131.075623,188.030029 131.106598,187.889648 131.090439,187.203644 
M152.996780,187.204193 
	C153.133102,187.639221 153.269409,188.074249 153.405716,188.509277 
	C153.607178,188.493958 153.808640,188.478638 154.010117,188.463303 
	C153.878296,187.160980 153.746475,185.858643 153.614639,184.556320 
	C153.520294,184.593689 153.425949,184.631058 153.147705,184.741241 
	C153.098907,185.257446 153.041641,185.863190 152.996780,187.204193 
M141.602844,186.521606 
	C140.928940,186.365738 140.255020,186.209885 139.581116,186.054016 
	C139.541992,186.258972 139.502884,186.463928 139.463776,186.668884 
	C140.017014,186.748993 140.570267,186.829102 141.602844,186.521606 
z"/>
<path fill="#84C3F4" opacity="1.000000" stroke="none" 
	d="
M54.703106,69.701088 
	C49.392494,76.102249 43.880363,81.943375 39.402451,88.491730 
	C35.030956,94.884453 31.715717,101.999466 27.918997,108.829384 
	C18.572840,105.427849 9.770082,88.690765 10.124468,74.693245 
	C10.584740,56.513451 22.971087,40.546589 41.065872,34.807621 
	C57.832729,29.489822 78.765579,34.850929 86.659088,45.622078 
	C76.077316,53.575066 65.515793,61.512833 54.703106,69.701088 
z"/>
<path fill="#84C3F4" opacity="1.000000" stroke="none" 
	d="
M265.383057,82.232132 
	C263.395233,93.865501 257.618988,102.592690 248.108810,109.852341 
	C236.390823,81.039940 216.363342,60.554024 189.091980,47.048592 
	C196.567093,34.875526 218.196686,29.663317 234.220825,34.527435 
	C255.506699,40.988743 268.315674,60.305012 265.383057,82.232132 
z"/>
<path fill="#83C3F4" opacity="1.000000" stroke="none" 
	d="
M156.919495,12.013934 
	C157.603439,24.285439 157.603439,24.285439 145.435593,25.394457 
	C145.232788,28.663977 145.023819,32.032726 144.797638,35.679066 
	C140.312943,35.679066 136.066238,35.679066 131.289154,35.679066 
	C131.089020,32.360909 130.885483,28.986284 130.648331,25.054478 
	C128.111633,25.054478 125.826134,24.920673 123.562378,25.085533 
	C120.082344,25.338974 118.699608,23.836624 118.941872,20.409498 
	C119.117233,17.928867 119.009705,15.428238 119.553574,12.469399 
	C132.359039,12.006160 144.639267,12.010047 156.919495,12.013934 
z"/>
<path fill="#92CAF5" opacity="1.000000" stroke="none" 
	d="
M156.774536,11.646898 
	C144.639267,12.010047 132.359039,12.006160 119.626205,12.015074 
	C120.204597,11.378759 121.229164,10.177728 122.267570,10.165639 
	C133.013992,10.040527 143.762817,10.085331 154.510284,10.170168 
	C155.219589,10.175767 155.923279,10.893414 156.774536,11.646898 
z"/>
<path fill="#FDFEFF" opacity="1.000000" stroke="none" 
	d="
M131.039627,155.630951 
	C131.005371,135.184586 131.049500,114.737579 130.874237,94.292442 
	C130.836761,89.921646 132.061584,86.617027 136.412079,85.467285 
	C140.640503,84.349823 143.316147,86.769325 145.164520,91.184433 
	C145.236557,108.178604 145.236557,124.378922 145.236557,141.097092 
	C153.558884,141.097092 160.813156,141.097092 168.067444,141.097092 
	C171.530762,142.069855 174.558548,143.526398 175.021896,147.655869 
	C175.483627,151.770798 173.142044,154.004440 168.922394,155.621582 
	C155.789154,155.737686 143.414398,155.684311 131.039627,155.630951 
z"/>
<path fill="#74BEF3" opacity="1.000000" stroke="none" 
	d="
M167.776215,140.782837 
	C160.813156,141.097092 153.558884,141.097092 145.236557,141.097092 
	C145.236557,124.378922 145.236557,108.178604 145.311310,91.520706 
	C145.923828,92.615952 146.911423,94.163979 146.927979,95.722328 
	C147.057098,107.865753 146.958969,120.011330 147.012772,132.155884 
	C147.052399,141.101654 145.918243,139.855499 155.091049,140.014832 
	C159.223740,140.086594 163.353760,140.312576 167.776215,140.782837 
z"/>
<path fill="#74BEF3" opacity="1.000000" stroke="none" 
	d="
M131.257904,156.009979 
	C143.414398,155.684311 155.789154,155.737686 168.647797,155.812485 
	C168.752457,156.140335 168.371597,156.716354 167.994247,156.714050 
	C155.821350,156.640121 143.648804,156.510391 131.257904,156.009979 
z"/>
<path fill="#1B2935" opacity="1.000000" stroke="none" 
	d="
M131.113998,187.476471 
	C131.106598,187.889648 131.075623,188.030029 131.044647,188.170395 
	C131.022919,188.006073 130.982986,187.841843 130.982361,187.677429 
	C130.977219,186.351151 130.979477,185.024811 130.979477,183.763947 
	C132.511963,183.640091 134.048309,183.515930 135.496750,183.398865 
	C135.471405,183.461517 135.076645,184.437363 134.681870,185.413208 
	C133.798355,184.942551 132.914825,184.471893 131.732239,183.841934 
	C131.504135,185.036682 131.297287,186.120163 131.113998,187.476471 
z"/>
<path fill="#6B9FC7" opacity="1.000000" stroke="none" 
	d="
M173.201706,184.802841 
	C177.375656,184.228683 173.984650,187.295029 175.183380,188.630508 
	C173.679398,188.812958 172.430664,188.964447 170.658020,188.786499 
	C169.739319,188.311310 169.344543,188.165573 168.949783,188.019821 
	C168.949783,188.019821 169.002014,188.011169 169.215607,187.758759 
	C170.603607,186.691162 171.778000,185.876007 173.013672,184.995316 
	C173.074951,184.929794 173.201706,184.802841 173.201706,184.802841 
z"/>
<path fill="#5D8AAD" opacity="1.000000" stroke="none" 
	d="
M112.116501,187.497269 
	C109.812225,188.459061 107.507950,189.420853 105.203674,190.382660 
	C104.950523,189.867325 104.697380,189.352005 104.444229,188.836685 
	C105.860138,188.175430 107.276039,187.514191 109.370605,186.878021 
	C110.738350,187.101151 111.427429,187.299210 112.116501,187.497269 
z"/>
<path fill="#324B5E" opacity="1.000000" stroke="none" 
	d="
M112.446579,187.303558 
	C111.427429,187.299210 110.738350,187.101151 109.680786,186.938141 
	C109.964005,185.982361 110.615715,184.991516 111.712418,183.324097 
	C112.022484,184.427063 112.399567,185.768448 112.446579,187.303558 
z"/>
<path fill="#76B0DB" opacity="1.000000" stroke="none" 
	d="
M164.541672,183.971481 
	C164.541672,183.971481 164.484192,184.014435 164.721680,184.243744 
	C165.248322,185.323532 165.537460,186.173981 165.826599,187.024445 
	C164.796951,187.381500 163.767288,187.738556 162.667419,187.759521 
	C162.393097,186.932510 162.188995,186.441589 161.984894,185.950684 
	C161.984894,185.950684 162.005020,185.998932 162.310303,186.137924 
	C162.735275,185.836212 162.854980,185.395508 162.974670,184.954803 
	C162.974670,184.954803 163.006790,184.989624 163.303192,184.920593 
	C163.913605,184.558212 164.227646,184.264847 164.541672,183.971481 
z"/>
<path fill="#6B9FC7" opacity="1.000000" stroke="none" 
	d="
M168.949554,184.854263 
	C169.849411,182.161163 171.235809,182.339890 173.053055,184.493530 
	C173.201706,184.802841 173.074951,184.929794 172.706299,185.094757 
	C171.208282,185.124557 170.078918,184.989410 168.949554,184.854263 
z"/>
<path fill="#385368" opacity="1.000000" stroke="none" 
	d="
M168.744583,184.924347 
	C170.078918,184.989410 171.208282,185.124557 172.645020,185.160278 
	C171.778000,185.876007 170.603607,186.691162 169.190979,187.770813 
	C168.952759,188.035309 168.500275,188.028976 168.291199,187.636475 
	C168.093994,186.527023 168.105896,185.810059 168.117798,185.093094 
	C168.117783,185.093094 168.539612,184.994431 168.744583,184.924347 
z"/>
<path fill="#324B5E" opacity="1.000000" stroke="none" 
	d="
M161.756226,186.165314 
	C162.188995,186.441589 162.393097,186.932510 162.336609,187.733948 
	C161.271988,188.044479 160.467957,188.044479 158.450592,188.044479 
	C160.140945,187.130051 160.834244,186.754990 161.756226,186.165314 
z"/>
<path fill="#1B2935" opacity="1.000000" stroke="none" 
	d="
M165.771484,187.402710 
	C165.537460,186.173981 165.248322,185.323532 164.698257,184.216583 
	C164.437332,183.960098 164.825195,184.037903 165.321259,184.072464 
	C166.222092,184.066422 166.626862,184.025818 167.031647,183.985214 
	C167.031647,183.985214 167.183517,184.450027 167.136200,185.079376 
	C167.157303,186.497070 167.225739,187.285431 167.294174,188.073776 
	C166.859802,188.316452 166.425430,188.559113 165.991058,188.801773 
	C165.899506,188.461502 165.807938,188.121231 165.771484,187.402710 
z"/>
<path fill="#3F5E75" opacity="1.000000" stroke="none" 
	d="
M152.990570,186.836578 
	C153.041641,185.863190 153.098907,185.257446 153.147705,184.741241 
	C153.425949,184.631058 153.520294,184.593689 153.614655,184.556320 
	C153.746475,185.858643 153.878296,187.160980 154.010117,188.463303 
	C153.808640,188.478638 153.607178,188.493958 153.405716,188.509277 
	C153.269409,188.074249 153.133102,187.639221 152.990570,186.836578 
z"/>
<path fill="#385368" opacity="1.000000" stroke="none" 
	d="
M167.099274,183.669083 
	C166.626862,184.025818 166.222092,184.066422 165.511841,184.125397 
	C165.570236,183.324631 165.934082,182.505508 166.631653,180.935104 
	C166.908676,182.186493 167.037796,182.769714 167.099274,183.669083 
z"/>
<path fill="#6B9FC7" opacity="1.000000" stroke="none" 
	d="
M167.486725,188.064850 
	C167.225739,187.285431 167.157303,186.497070 167.187744,185.318375 
	C167.286591,184.928024 167.709473,184.970184 167.913635,185.031647 
	C168.105896,185.810059 168.093994,186.527023 168.067505,187.602478 
	C168.052887,187.960953 167.679260,188.055908 167.486725,188.064850 
z"/>
<path fill="#324B5E" opacity="1.000000" stroke="none" 
	d="
M141.363174,186.715393 
	C140.570267,186.829102 140.017014,186.748993 139.463776,186.668884 
	C139.502884,186.463928 139.541992,186.258972 139.581116,186.054016 
	C140.255020,186.209885 140.928940,186.365738 141.363174,186.715393 
z"/>
<path fill="#324B5E" opacity="1.000000" stroke="none" 
	d="
M164.143494,183.893066 
	C164.227646,184.264847 163.913605,184.558212 163.280563,184.914368 
	C163.222809,184.589645 163.484070,184.202133 164.143494,183.893066 
z"/>
<path fill="#324B5E" opacity="1.000000" stroke="none" 
	d="
M162.640411,184.822876 
	C162.854980,185.395508 162.735275,185.836212 162.284241,186.135773 
	C162.070663,185.560059 162.188416,185.125519 162.640411,184.822876 
z"/>
<path fill="#385368" opacity="1.000000" stroke="none" 
	d="
M168.975555,188.397003 
	C169.344543,188.165573 169.739319,188.311310 170.255951,188.780731 
	C169.918991,188.994324 169.460159,188.884262 168.975555,188.397003 
z"/>
</svg>